<?xml version="1.0" encoding="UTF-8"?>
<svg width="100px" height="100px" viewBox="0 0 100 100" version="1.1" xmlns="http://www.w3.org/2000/svg" xmlns:xlink="http://www.w3.org/1999/xlink">
    <!-- Generator: Sketch 61.2 (89653) - https://sketch.com -->
    <title>team</title>
    <desc>Created with Sketch.</desc>
    <defs>
        <linearGradient x1="17.5000153%" y1="18.549082%" x2="87.2784078%" y2="102.388694%" id="linearGradient-1">
            <stop stop-color="#FF8D24" offset="0%"></stop>
            <stop stop-color="#FF4D00" offset="100%"></stop>
        </linearGradient>
    </defs>
    <g id="team" stroke="none" stroke-width="1" fill="none" fill-rule="evenodd">
        <g transform="translate(0.000000, 3.000000)">
            <path d="M57.5182992,0.119627555 C75.8942315,0.956357407 92.7542458,11.3279921 98.3234172,28.8465836 C103.786755,46.0340905 95.326748,63.4459288 81.2271527,74.7028902 C64.303805,88.2145747 42.2160363,99.9099568 24.0142708,88.1746047 C3.28244488,74.8078114 -5.36742079,47.5692707 3.40092832,24.5244134 C11.1769266,4.08763046 35.6605307,-0.875633223 57.5182992,0.119627555 Z" id="Path" fill="url(#linearGradient-1)"></path>
            <rect id="Rectangle" fill="#FFB800" fill-rule="nonzero" x="57" y="55" width="3" height="3"></rect>
            <rect id="Rectangle" fill="#FFB800" fill-rule="nonzero" x="67" y="55" width="3" height="3"></rect>
            <rect id="Rectangle" fill="#FFB800" fill-rule="nonzero" x="76" y="55" width="3" height="3"></rect>
            <rect id="Rectangle" fill="#FFB800" fill-rule="nonzero" x="57" y="64" width="3" height="3"></rect>
            <rect id="Rectangle" fill="#FFB800" fill-rule="nonzero" x="67" y="64" width="3" height="3"></rect>
            <rect id="Rectangle" fill="#FFB800" fill-rule="nonzero" x="76" y="64" width="3" height="3"></rect>
            <rect id="Rectangle" fill="#FFB800" fill-rule="nonzero" x="57" y="74" width="3" height="3"></rect>
            <rect id="Rectangle" fill="#FFB800" fill-rule="nonzero" x="67" y="74" width="3" height="3"></rect>
            <rect id="Rectangle" fill="#FFB800" fill-rule="nonzero" x="76" y="74" width="3" height="3"></rect>
            <rect id="Rectangle" fill="#FFB800" fill-rule="nonzero" x="84" y="55" width="3" height="3"></rect>
            <rect id="Rectangle" fill="#FFB800" fill-rule="nonzero" x="84" y="64" width="3" height="3"></rect>
            <rect id="Rectangle" fill="#FFB800" fill-rule="nonzero" x="84" y="74" width="3" height="3"></rect>
            <rect id="Rectangle" fill="#FFB800" fill-rule="nonzero" x="57" y="83" width="3" height="3"></rect>
            <rect id="Rectangle" fill="#FFB800" fill-rule="nonzero" x="67" y="83" width="3" height="3"></rect>
            <rect id="Rectangle" fill="#FFB800" fill-rule="nonzero" x="76" y="83" width="3" height="3"></rect>
            <rect id="Rectangle" fill="#FFB800" fill-rule="nonzero" x="84" y="83" width="3" height="3"></rect>
            <rect id="Rectangle" fill="#FFB800" fill-rule="nonzero" x="94" y="55" width="3" height="3"></rect>
            <rect id="Rectangle" fill="#FFB800" fill-rule="nonzero" x="94" y="64" width="3" height="3"></rect>
            <rect id="Rectangle" fill="#FFB800" fill-rule="nonzero" x="94" y="74" width="3" height="3"></rect>
            <rect id="Rectangle" fill="#FFB800" fill-rule="nonzero" x="94" y="83" width="3" height="3"></rect>
            <rect id="Rectangle" fill="#FFB800" fill-rule="nonzero" x="57" y="91" width="3" height="3"></rect>
            <rect id="Rectangle" fill="#FFB800" fill-rule="nonzero" x="67" y="91" width="3" height="3"></rect>
            <rect id="Rectangle" fill="#FFB800" fill-rule="nonzero" x="76" y="91" width="3" height="3"></rect>
            <rect id="Rectangle" fill="#FFB800" fill-rule="nonzero" x="84" y="91" width="3" height="3"></rect>
            <rect id="Rectangle" fill="#FFB800" fill-rule="nonzero" x="94" y="91" width="3" height="3"></rect>
            <g id="Group" transform="translate(17.000000, 14.000000)">
                <rect id="Rectangle" fill="#FDFCFE" fill-rule="nonzero" x="0" y="0" width="66.1066667" height="66.1066667" rx="12"></rect>
                <g id="team" transform="translate(8.933333, 12.752333)" fill="#F65731" fill-rule="nonzero">
                    <path d="M41.7271077,22.78 L37.52,22.78 C37.9488283,23.8173406 38.1831114,24.9368236 38.1831114,26.1036206 L38.1831114,40.1523105 C38.1831114,40.638781 38.0872732,41.1057251 37.9129156,41.54 L44.8682009,41.54 C47.4663523,41.54 49.58,39.6724114 49.58,37.3769315 L49.58,29.7183536 C49.58,25.8925851 46.0572539,22.78 41.7271077,22.78 Z" id="Path"></path>
                    <path d="M11.3968944,26.1036039 C11.3968944,24.9367189 11.6311754,23.8173354 12.06,22.78 L7.85292936,22.78 C3.52282135,22.78 0,25.8925695 0,29.7184128 L0,37.3769523 C0,39.6724207 2.11362906,41.54 4.71175762,41.54 L11.6670879,41.54 C11.4927318,41.1055395 11.3968944,40.6386916 11.3968944,40.1522236 L11.3968944,26.1036039 Z" id="Path"></path>
                    <path d="M29.1159081,18.76 L20.4640919,18.76 C16.5689492,18.76 13.4,21.9289492 13.4,25.8240919 L13.4,40.1271816 C13.4,40.9073762 14.0325282,41.54 14.8128184,41.54 L34.7671816,41.54 C35.5474718,41.54 36.18,40.9074718 36.18,40.1271816 L36.18,25.8240919 C36.18,21.9289492 33.0110508,18.76 29.1159081,18.76 Z" id="Path"></path>
                    <path d="M25.46,0 C21.0267205,0 17.42,3.60670023 17.42,8.04004523 C17.42,11.0471363 19.079721,13.6734226 21.5308148,15.0522795 C22.6934064,15.7062506 24.033738,16.08 25.46,16.08 C26.886262,16.08 28.2265936,15.7062506 29.3891852,15.0522795 C31.8403695,13.6734226 33.5,11.0470458 33.5,8.04004523 C33.5,3.60679068 29.8932795,0 25.46,0 Z" id="Path"></path>
                    <path d="M8.71,8.04 C5.38499586,8.04 2.68,10.7449959 2.68,14.07 C2.68,17.3950041 5.38499586,20.1 8.71,20.1 C9.55342896,20.1 10.3565823,19.925291 11.0861692,19.6112502 C12.3475935,19.0681647 13.3876835,18.1068117 14.0312766,16.9026259 C14.4830163,16.0574735 14.74,15.0933085 14.74,14.07 C14.74,10.7450866 12.0350041,8.04 8.71,8.04 Z" id="Path"></path>
                    <path d="M39.53,8.04 C36.2049959,8.04 33.5,10.7449959 33.5,14.07 C33.5,15.0933992 33.7569837,16.0575642 34.2087234,16.9026259 C34.8523165,18.1069024 35.8924065,19.0682554 37.1538308,19.6112502 C37.8834177,19.925291 38.686571,20.1 39.53,20.1 C42.8550041,20.1 45.56,17.3950041 45.56,14.07 C45.56,10.7449959 42.8550041,8.04 39.53,8.04 Z" id="Path"></path>
                </g>
                <circle id="Oval" fill="#FFFFFF" cx="52.26" cy="50.92" r="10.72"></circle>
                <g id="gear" transform="translate(44.220000, 42.880000)" fill="#F65731" fill-rule="nonzero">
                    <path d="M15.3775813,9.67756376 L13.9863135,8.61813243 C14.029446,8.24836787 14.029446,7.87503348 13.9863135,7.50526891 L15.3788525,6.44523302 C15.6398058,6.24057277 15.7095451,5.8816904 15.5434597,5.59829252 L14.0960516,3.16191715 C13.9293455,2.87673436 13.5742929,2.7521936 13.2591506,2.86835679 L11.6193756,3.51078097 C11.3112396,3.29307935 10.9811679,3.10644095 10.6342453,2.95374465 L10.3826044,1.2574166 C10.3372251,0.931756623 10.0503154,0.689699596 9.71282337,0.692354969 L6.81171026,0.692354969 C6.4770267,0.690419318 6.19242299,0.92977019 6.14571333,1.2524937 L5.89345162,2.95371586 C5.54759322,3.10788039 5.21805364,3.29466274 4.90959253,3.51138554 L3.26538306,2.86772343 C2.95349263,2.74799042 2.59876531,2.87103415 2.43477894,3.15575632 L0.986099637,5.59645003 C0.815550264,5.88030854 0.885762564,6.24313498 1.15070683,6.44707551 L2.54197464,7.50650684 C2.49842824,7.87624261 2.49842824,8.24963458 2.54197464,8.61937035 L1.14943562,9.67880168 C0.888038921,9.88317405 0.817974436,10.2422579 0.9842076,10.5257422 L2.43099487,12.9627509 C2.5974941,13.2481352 2.95275355,13.3727624 3.26789592,13.2563113 L4.90767093,12.6138871 C5.21607292,12.8317039 5.54635158,13.0185438 5.89342206,13.1715568 L6.14568377,14.8666469 C6.19008751,15.1914432 6.47522335,15.4336154 6.81168069,15.4323124 L9.71279381,15.4323124 C10.0480982,15.4349109 10.3336184,15.1954736 10.3806828,14.8721744 L10.6329445,13.1709522 C10.9787733,13.0167301 11.3082833,12.8299477 11.6168036,12.6132825 L13.2628755,13.2575492 C13.5747659,13.3769943 13.9293159,13.2540369 14.0934796,12.9695163 L15.5465638,10.5190056 C15.7092494,10.2360107 15.6377364,9.88000727 15.3775813,9.67756376 Z M8.26225203,11.1331303 C6.52069136,11.1331303 5.10884765,9.75828782 5.10884765,8.06230524 C5.10884765,6.36632266 6.5206618,4.9914802 8.26225203,4.9914802 C10.0038423,4.9914802 11.4156564,6.36632266 11.4156564,8.06230524 C11.4135574,9.75745294 10.0029554,11.1311151 8.26225203,11.1331303 Z" id="Shape"></path>
                </g>
            </g>
        </g>
    </g>
</svg>