<svg width="140" height="28" viewBox="0 0 140 28" fill="none" xmlns="http://www.w3.org/2000/svg">
<path d="M0 10.8719L11.654 0L24.6381 7.87529L20.91 11.1185L12.2133 6.07879L7.97848 9.76775L22.8344 18.4314L19.0774 21.6416L0 10.8719Z" fill="#FF5633"/>
<path d="M4.28755 23.2761L7.76188 20.035L15.6981 24.8229L12.5096 28L4.28755 23.2761Z" fill="#FF5633"/>
<path d="M34.8135 20.4219C33.825 20.0948 33.0377 19.6914 32.4536 19.2095L34.2078 16.0633C34.311 16.5968 34.6722 17.0694 35.2913 17.4821C35.9104 17.8949 36.6627 18.2168 37.548 18.449C38.4334 18.6811 39.3239 18.7967 40.2175 18.7967C41.1111 18.7967 41.9624 18.6244 42.7714 18.2808C43.5793 17.9372 43.9838 17.4212 43.9838 16.733C43.9838 16.3027 43.8033 15.9673 43.4421 15.7269C43.0809 15.4865 42.6249 15.3183 42.0749 15.2233C41.5249 15.1284 40.7592 15.0386 39.7789 14.953C38.3859 14.8322 37.2508 14.6775 36.3748 14.4886C35.4977 14.2998 34.7413 13.9252 34.1046 13.367C33.468 12.8077 33.1502 11.9874 33.1502 10.9039C33.1502 10.164 33.404 9.47267 33.9107 8.82774C34.4183 8.18282 35.2046 7.6545 36.2706 7.24175C37.3365 6.829 38.6604 6.62262 40.2423 6.62262C42.8385 6.62262 44.8764 7.23349 46.3551 8.4542L44.6009 11.6004C44.4461 10.8265 43.9302 10.2332 43.0531 9.82041C42.176 9.40766 41.2566 9.20128 40.2928 9.20128C38.9689 9.20128 37.9071 9.35194 37.1074 9.65221C36.3077 9.95249 35.9094 10.3983 35.9094 10.9823C35.9094 11.3775 36.0766 11.6747 36.4119 11.8718C36.7473 12.0689 37.1683 12.2071 37.676 12.2845C38.1837 12.3619 38.9101 12.4434 39.8553 12.5291C41.2824 12.6323 42.4556 12.7829 43.3761 12.98C44.2965 13.1771 45.0869 13.5775 45.7494 14.1791C46.4118 14.7806 46.7421 15.666 46.7421 16.8361C46.7421 18.16 46.1962 19.2476 45.1045 20.0989C44.0127 20.9502 42.3751 21.3754 40.1907 21.3754C39.5715 21.3754 38.7677 21.298 37.7792 21.1432C36.7906 20.9895 35.8021 20.749 34.8135 20.4219Z" fill="#FF5633"/>
<path d="M51.2555 9.87304C51.2555 8.9103 51.0832 7.98161 50.7396 7.08698H59.5858C61.0821 7.08698 62.2894 7.45639 63.2098 8.19624C64.1302 8.9361 64.5894 10.131 64.5894 11.781C64.5894 13.4144 64.1333 14.5836 63.2222 15.2883C62.311 15.9931 61.0986 16.346 59.5858 16.346H54.0405V18.1776C54.0405 19.1403 54.2129 20.069 54.5565 20.9637H50.7396C51.0832 20.069 51.2555 19.1414 51.2555 18.1776V9.87304ZM61.8044 11.782C61.8044 10.5097 61.0645 9.87304 59.5858 9.87304H54.0405V13.7158H59.5858C61.0656 13.7168 61.8044 13.0719 61.8044 11.782Z" fill="#FF5633"/>
<path d="M68.5869 9.87304C68.5869 8.9103 68.4146 7.98161 68.071 7.08698H80.2451V10.388C79.3504 10.0443 78.4228 9.87201 77.459 9.87201H71.3719V12.7097H76.1691C77.1319 12.7097 78.0606 12.5631 78.9552 12.2711V15.5979C78.0606 15.3059 77.1329 15.1594 76.1691 15.1594H71.3719V18.1766H77.5106C78.4733 18.1766 79.402 18.0042 80.2966 17.6606V20.9616H68.072C68.4156 20.1536 68.5879 19.259 68.5879 18.2787V9.87304H68.5869Z" fill="#FF5633"/>
<path d="M85.068 9.64087C85.068 8.74623 84.8957 7.89597 84.5521 7.08698H88.369C88.6785 7.7577 89.2461 8.66884 90.0716 9.82145L95.4621 16.476H95.5395V9.87304C95.5395 8.9103 95.3672 7.98161 95.0235 7.08698H98.8405C98.4968 7.98161 98.3245 8.90927 98.3245 9.87304V18.4108C98.3245 19.3054 98.4968 20.1557 98.8405 20.9647H95.0235C94.714 20.294 94.1464 19.3828 93.3209 18.2302L87.9046 11.5756H87.853V18.1786C87.853 19.1414 88.0254 20.0701 88.369 20.9647H84.5521C84.8957 20.0701 85.068 19.1424 85.068 18.1786V9.64087Z" fill="#FF5633"/>
<path d="M103.999 9.64087C103.999 8.74623 103.827 7.89597 103.483 7.08698H107.171C107.326 7.79175 107.808 8.72044 108.616 9.87304L111.659 14.3091L114.702 9.87304C115.509 8.72147 115.991 7.79278 116.146 7.08698H119.834C119.49 7.89494 119.318 8.74623 119.318 9.64087V18.1786C119.318 19.1414 119.49 20.0701 119.834 20.9647H116.017C116.361 20.0701 116.533 19.1424 116.533 18.1786V11.8594H116.482L112.458 17.7659H110.885L106.836 11.8594H106.784V18.1786C106.784 19.1414 106.956 20.0701 107.3 20.9647H103.483C103.827 20.0701 103.999 19.1424 103.999 18.1786V9.64087Z" fill="#FF5633"/>
<path d="M124.388 17.6885C123.794 16.571 123.498 15.341 123.498 14.0006C123.498 12.6591 123.796 11.4301 124.388 10.3126C124.981 9.1951 125.875 8.30046 127.071 7.62974C128.266 6.95902 129.74 6.62366 131.494 6.62366C133.249 6.62366 134.727 6.95489 135.93 7.61632C137.134 8.27879 138.028 9.16827 138.613 10.2858C139.198 11.4033 139.49 12.6416 139.49 13.9995C139.49 15.341 139.194 16.5699 138.601 17.6875C138.008 18.805 137.109 19.6996 135.906 20.3703C134.701 21.0411 133.232 21.3764 131.495 21.3764C129.759 21.3764 128.288 21.0411 127.085 20.3703C125.879 19.7006 124.98 18.806 124.388 17.6885ZM136.033 16.3605C136.411 15.6464 136.6 14.8601 136.6 14.0006C136.6 12.6426 136.166 11.5158 135.298 10.6222C134.43 9.72858 133.162 9.28074 131.493 9.28074C130.376 9.28074 129.434 9.49537 128.669 9.92567C127.904 10.356 127.332 10.9276 126.954 11.6406C126.576 12.3537 126.387 13.141 126.387 14.0006C126.387 14.8601 126.575 15.6474 126.954 16.3605C127.333 17.0745 127.904 17.6462 128.669 18.0754C129.434 18.5047 130.376 18.7204 131.493 18.7204C132.611 18.7204 133.553 18.5057 134.318 18.0754C135.082 17.6451 135.654 17.0735 136.033 16.3605Z" fill="#FF5633"/>
</svg>
