<?xml version="1.0" encoding="UTF-8"?>
<svg width="100px" height="100px" viewBox="0 0 100 100" version="1.1" xmlns="http://www.w3.org/2000/svg" xmlns:xlink="http://www.w3.org/1999/xlink">
    <!-- Generator: Sketch 61.2 (89653) - https://sketch.com -->
    <title>subscription</title>
    <desc>Created with Sketch.</desc>
    <defs>
        <linearGradient x1="17.5000153%" y1="18.5491327%" x2="87.2784078%" y2="102.388697%" id="linearGradient-1">
            <stop stop-color="#FF8D24" offset="0%"></stop>
            <stop stop-color="#FF4D00" offset="100%"></stop>
        </linearGradient>
    </defs>
    <g id="subscription" stroke="none" stroke-width="1" fill="none" fill-rule="evenodd">
        <g transform="translate(0.000000, 2.108108)">
            <path d="M57.5182992,1.01151951 C75.8942315,1.84824966 92.7542458,12.2198548 98.3234172,29.7384525 C103.786755,46.9259655 95.326748,64.3378101 81.2271527,75.5947756 C64.303805,89.1064649 42.2160363,100.801851 24.0142708,89.0664949 C3.28244488,75.6996968 -5.36742079,48.4612296 3.40092832,25.4162808 C11.1769266,4.97952383 35.6605307,0.016258372 57.5182992,1.01151951 Z" id="Path" fill="url(#linearGradient-1)"></path>
            <rect id="Rectangle" fill="#FFB800" fill-rule="nonzero" x="58" y="55.8918919" width="3" height="3"></rect>
            <rect id="Rectangle" fill="#FFB800" fill-rule="nonzero" x="67" y="55.8918919" width="3" height="3"></rect>
            <rect id="Rectangle" fill="#FFB800" fill-rule="nonzero" x="76" y="55.8918919" width="3" height="3"></rect>
            <rect id="Rectangle" fill="#FFB800" fill-rule="nonzero" x="58" y="64.8918919" width="3" height="3"></rect>
            <rect id="Rectangle" fill="#FFB800" fill-rule="nonzero" x="67" y="64.8918919" width="3" height="3"></rect>
            <rect id="Rectangle" fill="#FFB800" fill-rule="nonzero" x="76" y="64.8918919" width="3" height="3"></rect>
            <rect id="Rectangle" fill="#FFB800" fill-rule="nonzero" x="58" y="73.8918919" width="3" height="3"></rect>
            <rect id="Rectangle" fill="#FFB800" fill-rule="nonzero" x="67" y="73.8918919" width="3" height="3"></rect>
            <rect id="Rectangle" fill="#FFB800" fill-rule="nonzero" x="76" y="73.8918919" width="3" height="3"></rect>
            <rect id="Rectangle" fill="#FFB800" fill-rule="nonzero" x="85" y="55.8918919" width="3" height="3"></rect>
            <rect id="Rectangle" fill="#FFB800" fill-rule="nonzero" x="85" y="64.8918919" width="3" height="3"></rect>
            <rect id="Rectangle" fill="#FFB800" fill-rule="nonzero" x="85" y="73.8918919" width="3" height="3"></rect>
            <rect id="Rectangle" fill="#FFB800" fill-rule="nonzero" x="58" y="82.8918919" width="3" height="3"></rect>
            <rect id="Rectangle" fill="#FFB800" fill-rule="nonzero" x="67" y="82.8918919" width="3" height="3"></rect>
            <rect id="Rectangle" fill="#FFB800" fill-rule="nonzero" x="76" y="82.8918919" width="3" height="3"></rect>
            <rect id="Rectangle" fill="#FFB800" fill-rule="nonzero" x="85" y="82.8918919" width="3" height="3"></rect>
            <rect id="Rectangle" fill="#FFB800" fill-rule="nonzero" x="95" y="55.8918919" width="3" height="3"></rect>
            <rect id="Rectangle" fill="#FFB800" fill-rule="nonzero" x="95" y="64.8918919" width="3" height="3"></rect>
            <rect id="Rectangle" fill="#FFB800" fill-rule="nonzero" x="95" y="73.8918919" width="3" height="3"></rect>
            <rect id="Rectangle" fill="#FFB800" fill-rule="nonzero" x="95" y="82.8918919" width="3" height="3"></rect>
            <rect id="Rectangle" fill="#FFB800" fill-rule="nonzero" x="58" y="91.8918919" width="3" height="3"></rect>
            <rect id="Rectangle" fill="#FFB800" fill-rule="nonzero" x="67" y="91.8918919" width="3" height="3"></rect>
            <rect id="Rectangle" fill="#FFB800" fill-rule="nonzero" x="76" y="91.8918919" width="3" height="3"></rect>
            <rect id="Rectangle" fill="#FFB800" fill-rule="nonzero" x="85" y="91.8918919" width="3" height="3"></rect>
            <rect id="Rectangle" fill="#FFB800" fill-rule="nonzero" x="95" y="91.8918919" width="3" height="3"></rect>
            <rect id="Rectangle" fill="#FDFCFE" fill-rule="nonzero" x="17" y="14.8918919" width="67" height="67" rx="12"></rect>
            <g transform="translate(24.000000, 23.891892)" fill-rule="nonzero">
                <path d="M52.2231565,25.6873471 C51.3310687,25.5806476 50.5199641,26.217457 50.4135411,27.1091594 C49.0754093,38.3049793 39.5270165,46.7482075 28.203352,46.7482075 C18.0189649,46.7482075 9.27192478,39.9181731 6.64102884,30.3990588 L8.588867,31.4673235 C9.37707582,31.8992021 10.3666827,31.6121298 10.7995829,30.8250097 C11.2324829,30.0378897 10.9445895,29.0496496 10.1563807,28.6173476 L5.16043436,25.8766115 C4.39300131,25.4557415 3.38643456,25.7622907 2.95014257,26.5172316 L0.202223579,31.5003495 C-0.231524378,32.2870462 0.0555209732,33.2757096 0.842881756,33.7088585 C1.6234586,34.0226056 2.57320993,33.8329177 3.05444556,33.0690852 L3.69128769,31.914445 C6.91747431,42.4827705 16.7694483,50 28.203352,50 C41.1750895,50 52.1133416,40.3246472 53.6469356,27.494463 C53.7533585,26.6027605 53.1156684,25.7936231 52.2231565,25.6873471 L52.2231565,25.6873471 Z" id="Path" fill="#E5ECF5"></path>
                <path d="M54.0189795,13.5062475 C53.1964498,13.1606727 52.2411995,13.530137 51.8861507,14.3324966 L51.3747114,15.4874328 C49.7765691,11.6795204 47.2117643,8.2719639 43.9081198,5.6338158 C39.3596911,2.00054412 33.608746,0 27.7145134,0 C21.8202807,0 16.0693356,2.00054412 11.5204842,5.6338158 C7.0346118,9.21642502 3.9084917,14.2167557 2.71823289,19.7130006 C2.53310036,20.56767 3.0944156,21.4066876 3.97147057,21.587095 C4.848103,21.7679141 5.70951895,21.2205138 5.89465159,20.3662564 C6.93274664,15.5714583 9.66155022,11.2083195 13.5780765,8.08002364 C17.5478602,4.90930328 22.5684192,3.16330639 27.7145134,3.16330639 C32.8601848,3.16330639 37.8807437,4.90930328 41.8505274,8.08002364 C44.9018337,10.5167582 47.23163,13.7035423 48.6036401,17.2597906 L46.5485838,16.3985311 C45.7256314,16.05378 44.7708038,16.4240681 44.4161777,17.2264276 C44.0619742,18.0287871 44.4423837,18.9592441 45.2661814,19.3044069 L50.4224197,21.4655877 C51.2119807,21.7588526 52.1870968,21.5298424 52.6186502,20.6656996 L54.8668698,15.5846387 C55.2219186,14.7826911 54.8423546,13.8522341 54.0189795,13.5062475 L54.0189795,13.5062475 Z" id="Path" fill="#E5ECF5"></path>
                <path d="M19.0105561,29.4157603 C18.1427563,29.4157603 17.4394336,30.155702 17.4394336,31.0686841 L17.4394336,31.7307145 C17.4394336,35.2035766 20.1271167,38.0286128 23.4309745,38.0286128 L24.0843814,38.0286128 L24.0843814,40.238968 C24.0843814,41.1515197 24.7877042,41.8918919 25.6555038,41.8918919 C26.5228943,41.8918919 27.2266263,41.1515197 27.2266263,40.238968 L27.2266263,38.0286128 L29.1152464,38.0286128 L29.1152464,40.238968 C29.1152464,41.1515197 29.8185692,41.8918919 30.6863688,41.8918919 C31.5541684,41.8918919 32.2574913,41.1515197 32.2574913,40.238968 L32.2574913,38.0286128 L32.9108981,38.0286128 C36.2147559,38.0286128 38.902439,35.2035766 38.902439,31.7307145 L38.902439,30.7729657 C38.902439,28.2987453 37.3194514,26.1060385 35.0523708,25.440134 L32.2574913,24.6192679 L32.2574913,16.5057361 L32.910489,16.5057361 C34.4820206,16.5057361 35.7601941,17.8478759 35.7601941,19.4973562 L35.7601941,19.763804 C35.7601941,20.6763557 36.4635169,21.4162975 37.3313166,21.4162975 C38.1987071,21.4162975 38.902439,20.6763557 38.902439,19.763804 L38.902439,19.4973562 C38.902439,16.0249247 36.2143468,13.1998884 32.910489,13.1998884 L32.2574913,13.1998884 L32.2574913,9.76103198 C32.2574913,8.84804973 31.5537593,8.10810811 30.6863688,8.10810811 C29.8185692,8.10810811 29.1152464,8.84804973 29.1152464,9.76103198 L29.1152464,13.1998884 L27.2262171,13.1998884 L27.2262171,9.76103198 C27.2262171,8.84804973 26.5228943,8.10810811 25.6550947,8.10810811 C24.7877042,8.10810811 24.0839723,8.84804973 24.0839723,9.76103198 L24.0839723,13.1998884 L23.4309745,13.1998884 C20.1271167,13.1998884 17.4390244,16.0249247 17.4390244,19.4973562 C17.4390244,21.9715765 19.0224213,24.1642834 21.2895018,24.8301879 L24.0843814,25.651054 L24.0843814,34.722765 L23.4309745,34.722765 C21.8598521,34.722765 20.5816785,33.3806253 20.5816785,31.7307145 L20.5816785,31.0686841 C20.5816785,30.155702 19.8779466,29.4157603 19.0105561,29.4157603 L19.0105561,29.4157603 Z M32.2574913,28.0512372 L34.2074833,28.6241647 C35.1215165,28.8927648 35.7601941,29.776046 35.7601941,30.7729657 L35.7601941,31.7307145 C35.7601941,33.3806253 34.4820206,34.722765 32.9108981,34.722765 L32.2574913,34.722765 L32.2574913,28.0512372 Z M27.2266263,16.5057361 L29.1152464,16.5057361 L29.1152464,23.6963854 L27.2266263,23.1415368 L27.2266263,16.5057361 Z M27.2266263,26.5739365 L29.1152464,27.1283547 L29.1152464,34.722765 L27.2266263,34.722765 L27.2266263,26.5739365 Z M22.1343894,21.6461572 C21.219947,21.3775571 20.5816785,20.4938454 20.5816785,19.4973562 C20.5816785,17.8478759 21.8598521,16.5053057 23.4309745,16.5053057 L24.0843814,16.5053057 L24.0843814,22.2186543 L22.1343894,21.6461572 Z" id="Shape" fill="#F65731"></path>
            </g>
        </g>
    </g>
</svg>