<?xml version="1.0" encoding="UTF-8"?>
<svg width="100px" height="100px" viewBox="0 0 100 100" version="1.1" xmlns="http://www.w3.org/2000/svg" xmlns:xlink="http://www.w3.org/1999/xlink">
    <!-- Generator: Sketch 61.2 (89653) - https://sketch.com -->
    <title>chart</title>
    <desc>Created with Sketch.</desc>
    <defs>
        <linearGradient x1="17.5000153%" y1="17.8691336%" x2="87.2784078%" y2="103.521393%" id="linearGradient-1">
            <stop stop-color="#FF8D24" offset="0%"></stop>
            <stop stop-color="#FF4D00" offset="100%"></stop>
        </linearGradient>
    </defs>
    <g id="chart" stroke="none" stroke-width="1" fill="none" fill-rule="evenodd">
        <g transform="translate(0.000000, 0.500000)">
            <path d="M57.5182992,0.620913932 C75.8942315,1.46664118 92.7542458,11.9497689 98.3234172,29.6567387 C103.786755,47.0290637 95.326748,64.6281324 81.2271527,76.0061405 C64.303805,89.6631168 42.2160363,101.48426 24.0142708,89.622717 C3.28244488,76.1121899 -5.36742079,48.580836 3.40092832,25.288092 C11.1769266,4.63158497 35.6605307,-0.385048934 57.5182992,0.620913932 Z" id="Path" fill="url(#linearGradient-1)"></path>
            <rect id="Rectangle" fill="#FFB800" fill-rule="nonzero" x="57" y="56.5" width="3" height="3"></rect>
            <rect id="Rectangle" fill="#FFB800" fill-rule="nonzero" x="66" y="56.5" width="3" height="3"></rect>
            <rect id="Rectangle" fill="#FFB800" fill-rule="nonzero" x="76" y="56.5" width="3" height="3"></rect>
            <rect id="Rectangle" fill="#FFB800" fill-rule="nonzero" x="57" y="65.5" width="3" height="3"></rect>
            <rect id="Rectangle" fill="#FFB800" fill-rule="nonzero" x="66" y="65.5" width="3" height="3"></rect>
            <rect id="Rectangle" fill="#FFB800" fill-rule="nonzero" x="76" y="65.5" width="3" height="3"></rect>
            <rect id="Rectangle" fill="#FFB800" fill-rule="nonzero" x="57" y="74.5" width="3" height="3"></rect>
            <rect id="Rectangle" fill="#FFB800" fill-rule="nonzero" x="66" y="74.5" width="3" height="3"></rect>
            <rect id="Rectangle" fill="#FFB800" fill-rule="nonzero" x="76" y="74.5" width="3" height="3"></rect>
            <rect id="Rectangle" fill="#FFB800" fill-rule="nonzero" x="85" y="56.5" width="3" height="3"></rect>
            <rect id="Rectangle" fill="#FFB800" fill-rule="nonzero" x="85" y="65.5" width="3" height="3"></rect>
            <rect id="Rectangle" fill="#FFB800" fill-rule="nonzero" x="85" y="74.5" width="3" height="3"></rect>
            <rect id="Rectangle" fill="#FFB800" fill-rule="nonzero" x="57" y="83.5" width="3" height="3"></rect>
            <rect id="Rectangle" fill="#FFB800" fill-rule="nonzero" x="66" y="83.5" width="3" height="3"></rect>
            <rect id="Rectangle" fill="#FFB800" fill-rule="nonzero" x="76" y="83.5" width="3" height="3"></rect>
            <rect id="Rectangle" fill="#FFB800" fill-rule="nonzero" x="85" y="83.5" width="3" height="3"></rect>
            <rect id="Rectangle" fill="#FFB800" fill-rule="nonzero" x="94" y="56.5" width="3" height="3"></rect>
            <rect id="Rectangle" fill="#FFB800" fill-rule="nonzero" x="94" y="65.5" width="3" height="3"></rect>
            <rect id="Rectangle" fill="#FFB800" fill-rule="nonzero" x="94" y="74.5" width="3" height="3"></rect>
            <rect id="Rectangle" fill="#FFB800" fill-rule="nonzero" x="94" y="83.5" width="3" height="3"></rect>
            <rect id="Rectangle" fill="#FFB800" fill-rule="nonzero" x="57" y="93.5" width="3" height="3"></rect>
            <rect id="Rectangle" fill="#FFB800" fill-rule="nonzero" x="66" y="93.5" width="3" height="3"></rect>
            <rect id="Rectangle" fill="#FFB800" fill-rule="nonzero" x="76" y="93.5" width="3" height="3"></rect>
            <rect id="Rectangle" fill="#FFB800" fill-rule="nonzero" x="85" y="93.5" width="3" height="3"></rect>
            <rect id="Rectangle" fill="#FFB800" fill-rule="nonzero" x="94" y="93.5" width="3" height="3"></rect>
            <g id="Group" transform="translate(18.000000, 14.500000)" fill-rule="nonzero">
                <rect id="Rectangle" fill="#FDFCFE" x="0" y="0" width="66" height="68" rx="12"></rect>
                <path d="M-7.25,32.35 L33.65,32.35 C34.5612698,32.35 35.3,33.0887302 35.3,34 C35.3,34.9112698 34.5612698,35.65 33.65,35.65 L-7.25,35.65 C-8.16126984,35.65 -8.9,34.9112698 -8.9,34 C-8.9,33.0887302 -8.16126984,32.35 -7.25,32.35 Z" id="Rectangle" fill="#DFE9F4" transform="translate(13.200000, 34.000000) rotate(90.000000) translate(-13.200000, -34.000000) "></path>
                <path d="M5.95,32.35 L46.85,32.35 C47.7612698,32.35 48.5,33.0887302 48.5,34 C48.5,34.9112698 47.7612698,35.65 46.85,35.65 L5.95,35.65 C5.03873016,35.65 4.3,34.9112698 4.3,34 C4.3,33.0887302 5.03873016,32.35 5.95,32.35 Z" id="Rectangle" fill="#DFE9F4" transform="translate(26.400000, 34.000000) rotate(90.000000) translate(-26.400000, -34.000000) "></path>
                <path d="M19.15,32.35 L60.05,32.35 C60.9612698,32.35 61.7,33.0887302 61.7,34 C61.7,34.9112698 60.9612698,35.65 60.05,35.65 L19.15,35.65 C18.2387302,35.65 17.5,34.9112698 17.5,34 C17.5,33.0887302 18.2387302,32.35 19.15,32.35 Z" id="Rectangle" fill="#DFE9F4" transform="translate(39.600000, 34.000000) rotate(90.000000) translate(-39.600000, -34.000000) "></path>
                <path d="M32.35,32.35 L73.25,32.35 C74.1612698,32.35 74.9,33.0887302 74.9,34 C74.9,34.9112698 74.1612698,35.65 73.25,35.65 L32.35,35.65 C31.4387302,35.65 30.7,34.9112698 30.7,34 C30.7,33.0887302 31.4387302,32.35 32.35,32.35 Z" id="Rectangle" fill="#DFE9F4" transform="translate(52.800000, 34.000000) rotate(90.000000) translate(-52.800000, -34.000000) "></path>
                <path d="M11.7777825,53.5381 C11.3157825,54.347385 11.5779675,55.389315 12.36345,55.865315 C13.1489325,56.341315 14.1602175,56.071185 14.6222175,55.2619 L11.7777825,53.5381 Z M26.871405,30.452185 L27.7728,29.028265 C27.395115,28.774455 26.9331975,28.690985 26.4942975,28.79715 C26.0553975,28.903315 25.677795,29.189935 25.4491875,29.590285 L26.871405,30.452185 Z M40.071405,39.321765 L39.1700925,40.745685 C39.562215,41.0091 40.0444275,41.088575 40.4966925,40.964305 C40.94904,40.83995 41.3287875,40.52358 41.54139,40.093905 L40.071405,39.321765 Z M54.269985,14.37214 C54.6838875,13.53574 54.3613125,12.511915 53.54943,12.08547 C52.73763,11.659025 51.7439175,11.991375 51.330015,12.82786 L54.269985,14.37214 Z M14.6222175,55.2619 L28.2936225,31.314085 L25.4491875,29.590285 L11.7777825,53.5381 L14.6222175,55.2619 Z M25.9700925,31.876105 L39.1700925,40.745685 L40.9728,37.89776 L27.7728,29.028265 L25.9700925,31.876105 Z M41.54139,40.093905 L54.269985,14.37214 L51.330015,12.82786 L38.6015025,38.54954 L41.54139,40.093905 Z" id="Shape" fill="#F65731"></path>
            </g>
        </g>
    </g>
</svg>